<svg xmlns="http://www.w3.org/2000/svg" viewBox="0 0 729.88 729.75"><defs><style>.cls-1{isolation:isolate;}.cls-2{fill:#090e2d;}.cls-3{fill:#fff;}.cls-4{fill:#9b9b9b;}.cls-5{fill:#595959;}.cls-6{fill:#2d2d2d;}.cls-7{fill:#353535;}.cls-8{fill:#d8d8d8;}.cls-9{fill:#686868;}.cls-10{fill:#5b5b5b;}.cls-11{fill:#111844;}.cls-12{fill:#ccc;}.cls-13{fill:#e6e7e8;}.cls-14{fill:#89121b;}.cls-15{fill:#c1272d;}.cls-16{fill:#a01823;}.cls-17{fill:#acc4c7;}.cls-18{fill:#313c42;}.cls-19{fill:#fafcff;}.cls-20{fill:#d1d3d4;}.cls-21{fill:#ed1c24;}.cls-22{fill:#060a23;}.cls-23{fill:#65446d;}.cls-24{fill:#ff7885;}.cls-25{mix-blend-mode:multiply;}.cls-26{fill:#0d143a;}.cls-27{fill:#19225b;}</style></defs><title>Background_4</title><g class="cls-1"><g id="Layer_1" data-name="Layer 1"><path class="cls-2" d="M604,163.2c-4.56-3.95-11.66-5.13-12.94,2.38a24.55,24.55,0,0,0,1,11.93c2.48,7.17,9.69,12.06,16.41,15.4.19-.65.36-1.32.51-2C611,181.94,611.66,169.85,604,163.2Z" transform="translate(-10.2 -122.24)"/><path class="cls-2" d="M710.29,135c-1.45-1.16-3.63-2.86-5.64-2.72-2.71.2-2.83,4-2.58,6,1,8.14,9.17,11.36,16.41,12.67-.08-.44-.16-.87-.27-1.29C716.87,144.32,714.78,138.63,710.29,135Z" transform="translate(-10.2 -122.24)"/><path class="cls-2" d="M518.27,199.79a9,9,0,0,0,.9,8.78,20.19,20.19,0,0,0,5.65,5.27,19.81,19.81,0,0,0-.19-11.2C523.86,200.51,520.21,195.71,518.27,199.79Z" transform="translate(-10.2 -122.24)"/><path class="cls-2" d="M12,324.92a19.79,19.79,0,0,1,3.58-13.43c-1-1.53-.34-4.19,2.07-4.19a2.48,2.48,0,0,1,1.44.42c.43-.35.86-.69,1.32-1L47.56,288a21.78,21.78,0,0,0,5.56-30.29L51.94,256a21.77,21.77,0,0,0-30.29-5.55l-11,7.61V326.3A1.8,1.8,0,0,1,12,324.92Zm27.78-76.2a1.32,1.32,0,0,1,0,2.63A1.32,1.32,0,0,1,39.78,248.72ZM24.16,296.23c2.54,0,2.54,3.94,0,3.94S21.62,296.23,24.16,296.23Zm-11.72.66a1.31,1.31,0,0,1,0,2.62A1.31,1.31,0,0,1,12.44,296.89Z" transform="translate(-10.2 -122.24)"/><path class="cls-2" d="M671,122.24h-2A2.34,2.34,0,0,0,671,122.24Z" transform="translate(-10.2 -122.24)"/><path class="cls-2" d="M649.15,463A13.41,13.41,0,0,1,647,452.71l-41.22,30.6c-3.82,2.85-9,2.33-11.63-1.15s-1.61-8.63,2.21-11.48l38.92-28.86,6.24-4.66,6.83-5.09a1.72,1.72,0,1,1,2,2.74l-6.83,5.1-6.24,4.65-1.39,1a1.72,1.72,0,1,0,2,2.74l4.68-3.49,3-2.2,10.1-7.54a1.72,1.72,0,1,1,2,2.74l-10.11,7.54-3,2.2L642.79,449a1.72,1.72,0,1,0,2,2.75l3.39-2.53a13.19,13.19,0,0,1,2-2.87.93.93,0,0,1-.57-.36,1,1,0,0,1,.19-1.34l4-3a1,1,0,0,1,1.35.2,1,1,0,0,1,.17.47l38.8-26.79A14.14,14.14,0,0,0,688.61,390a1.93,1.93,0,1,1-3.56-.17,14.11,14.11,0,0,0-7,2.46l-64.15,44.27a2.66,2.66,0,0,1,.51.39l1.3,1.3A2.62,2.62,0,1,1,612,442l-1.3-1.3a2.51,2.51,0,0,1-.71-1.4l-30.56,21.09a13.44,13.44,0,0,1-15.26-22.12l76.35-52.69a14.85,14.85,0,0,0-16.87-24.44l-19.31,13.32a13.44,13.44,0,1,1-15.27-22.11L618,332.39a14.85,14.85,0,0,0,3.78-20.66l-.8-1.16a14.86,14.86,0,0,0-20.66-3.79L490,382.94a13.43,13.43,0,0,1-19.4-17.53l-.14,0-.26.06c-.23.05-.46.09-.7.12l-.16,0-.89.08h-.17c-.25,0-.5,0-.76,0h-.24c-.25,0-.51,0-.78-.05h-.16a14.37,14.37,0,0,1-2-.33l-.13,0c-.3-.07-.61-.15-.92-.25l-.11,0a17.63,17.63,0,0,1-3.14-1.34l-.06,0a20.56,20.56,0,0,1-3.11-2.11l0,0c-.34-.28-.67-.57-1-.88h0a28.46,28.46,0,0,1-7.32-11.85,43.7,43.7,0,0,1-2.22-13.26h0v-.1c0-.63,0-1.25,0-1.85v-.18c0-.62,0-1.22.06-1.82v0h0a53.34,53.34,0,0,1,2.15-12.63c-7.32,3-25.5-5.38-26-5.51-.16,0-1.52-.63-3.33-1.28h0l-.75-.25-.15-.05-.81-.26-.05,0-.8-.23-.14,0-.86-.23c-3.29-.83-6.63-1-7.16,1.31-1,4.72,1.38,15.36,1.38,15.36s3.94,3.74,2.17,7.88-10.44,10.83-20.28,5.31l-.9-.51-.28-.16-.63-.38-.34-.21-.58-.36-.37-.24a6.65,6.65,0,0,1-.56-.36c-.14-.08-.27-.17-.4-.26l-.54-.36-.41-.28-.54-.37-.41-.29-.53-.38-.43-.31-.51-.38-.43-.32-.51-.39-.43-.34-.52-.41-.9-.74-.37-.31-.54-.45-.36-.31-.52-.47-.35-.31-.52-.48-.34-.31-.51-.5-.32-.3-.51-.51-.28-.3-.52-.53-.25-.27-.52-.57-.2-.23-.53-.61-.12-.14a32.54,32.54,0,0,1-2.28-3l-.09-.12-.4-.64c0-.08-.09-.15-.13-.22l-.35-.6c0-.09-.09-.17-.14-.26l-.3-.58-.13-.27c-.09-.19-.18-.38-.26-.57l-.12-.27c-.08-.2-.15-.39-.22-.58a2.77,2.77,0,0,1-.1-.26l-.19-.58-.06-.24c-.06-.2-.12-.4-.16-.6a1.16,1.16,0,0,0,0-.18c0-.21-.09-.43-.12-.64v0a9.41,9.41,0,0,1-.07-2.48c.84-7.07,5.67-8,11.7-6l-.41-.27c.32-6.46,1.22-10.29,3.69-13.69h0l.15-.2c.16-.21.32-.41.49-.61s.28-.35.43-.51.35-.41.54-.6.33-.35.5-.52l.61-.59.59-.54.65-.58.7-.58.7-.58.83-.65.72-.56c.34-.26.7-.53,1.07-.79.21-.16.41-.32.64-.48L395,286c.36-.25.72-.48,1.09-.7l.14-.07c.33-.19.67-.36,1-.52l.07,0c.41-.18.84-.35,1.27-.5L399,284l.66-.2h.07a22.69,22.69,0,0,1,7.25-.56h0l.28,0c.64.05,1.28.11,1.92.2l.13,0c.64.09,1.29.2,1.93.32l.24,0h0a61.31,61.31,0,0,1,15.22,5.46,140.86,140.86,0,0,1-2.43-19.52l-24.19-2.15C374.84,265.42,369.39,235,369.39,235s-4.73-3.83-5-9.48c0,0-6.3-2.49-9.59-2s-5.51-3-4.33-5.12,6.83-6.43,14.18-1.31c0,0,2.23,1,1.31-1.31s-2.36-2.76-5.25-4.2-5.51-2.24-5.25-4.73.13-4.86,3.28-5,13.13,7.35,14.18,8.27,1.84-.39,1.84-1-5.91-6.56-7.09-8.14a5,5,0,0,1-.92-4.72c.53-1.45,4.73-2.89,7.22-1.45s10,9.19,11.29,14.44,1.58,3.94,1.58,3.94a5.54,5.54,0,0,1,4.2-3.28c3.42-.79,6.7-.13,5.91,3s-3.94,5.12-5,5.65-1.18,1-1.18,1,2.47,4.08-1.45,5.94C400.77,249,415,245.29,421,242.23a10.61,10.61,0,0,1,1.31-3.57c-8.46-9.93-5.66-24-5.66-24s-3.15-1.18-1.58-5.71,8.27-15,20.29-18.11,24.22,1.77,29,8.86c3.08,4.63,5.75,13.15,7.23,18.52l21.13,2.85.56,11,.22.05a118.48,118.48,0,0,1,18,5.09c3.26-2.51,5.7-6.31,7.75-10A63.31,63.31,0,0,0,523.93,217a22.49,22.49,0,0,1-6.28-5.27c-3.06-3.89-5.52-12.2-.21-15.56,6.25-3.95,10.25,4.34,10.92,9.27a27.12,27.12,0,0,1-.73,10.05,57.81,57.81,0,0,0,12.62,4.35,70.18,70.18,0,0,0,23.21,1.43c18-1.66,37.24-7.88,44-25.38-6.14-3.05-12.26-7-16-12.77-3.52-5.36-5.34-13.92-3-20.08,3-7.67,10.62-7.52,16.52-3,6.41,4.94,8.58,13.18,8.35,21a53.07,53.07,0,0,1-2,13.26,115.9,115.9,0,0,0,25.15,7.83c18.24,3.62,39.43,5.08,57-2.16,9.82-4.05,16.86-10.78,20.81-20.71.69-1.73,1.35-3.54,1.94-5.4-1.27-1.34-.85-4.06,1.27-4.46a54.67,54.67,0,0,0,1.25-6.59c-2.69-.55-2.58-4.91.34-5.16a32.11,32.11,0,0,0-.15-3.4c-6.38-1-13.07-3.11-17.16-8.36-3.12-4-5.07-13.67.84-16.24,6.24-2.72,13.39,6,15.58,10.72a41.11,41.11,0,0,1,3.28,11.13,49.2,49.2,0,0,0,18.6-.88V122.24H685a1.35,1.35,0,0,1-1.51,0h-8l-11.21,8.31a1.33,1.33,0,0,1-.82,2.33,1.19,1.19,0,0,1-1.19-.83l-5.51,4.09a1.31,1.31,0,0,1-1.12,2,1.2,1.2,0,0,1-.95-.42L622.91,161.2c-4.76,3.55-11.24,2.91-14.47-1.43s-2-10.73,2.75-14.28l26.43-19.6a1.31,1.31,0,0,1,1.94-1.76l.18.19,2.81-2.08H357.06l-59.71,41.2a1.32,1.32,0,0,1-1.1,2,1.21,1.21,0,0,1-1-.52L42.79,339.14a19.7,19.7,0,0,1-30-10.36c-.11,0-.22,0-.35,0a1.8,1.8,0,0,1-1.83-1.42V636.94q9.54-11.87,20-23.1a426.78,426.78,0,0,1,259.93-132.4,4.3,4.3,0,0,1,4.41-4.27,4.2,4.2,0,0,1,4.27,3.31,425.75,425.75,0,0,1,140.65,9.44,1.28,1.28,0,0,1,2.09.5,425,425,0,0,1,187.47,100h.1a1.85,1.85,0,0,1,1.89,1.84,428.7,428.7,0,0,1,98.87,138.85q5.29,11.93,9.8,24V464.91l-.56.57A4.59,4.59,0,0,1,733,459c.44-.43.87-.87,1.3-1.3a4.65,4.65,0,0,1,5.76-.59V416.52l-72.24,49.86A13.43,13.43,0,0,1,649.15,463Zm24.63-40.43a2,2,0,0,1,0,3.93A2,2,0,0,1,673.78,422.52Zm-11.89,12.23L665,432.4a.75.75,0,0,1,.9,1.2L662.78,436a.75.75,0,0,1-.89-1.2Zm-7.38-3.52,4.62-3.44a1.1,1.1,0,0,1,1.31,1.76L655.82,433a1.1,1.1,0,0,1-1.31-1.76Zm-21.09-69.9a2,2,0,0,1,0,3.93C630.89,365.26,630.89,361.33,633.42,361.33Zm-26,41.67a.66.66,0,0,1,0,1.31A.66.66,0,0,1,607.39,403ZM593.07,195.35a1.31,1.31,0,0,1,0,2.62A1.31,1.31,0,0,1,593.07,195.35Zm113.26-19.5c-3.39,0-3.39-5.25,0-5.25S709.71,175.85,706.33,175.85Zm-2.61-19.56H705a2.62,2.62,0,1,1,0,5.24h-1.3a2.62,2.62,0,0,1,0-5.24Zm25.11-8.73c.44-.43.87-.86,1.3-1.3a1.32,1.32,0,0,1,1.86,1.86c-.43.43-.87.86-1.3,1.3A1.32,1.32,0,0,1,728.83,147.56Zm-60.25-4.28a1.31,1.31,0,0,1,0,2.62A1.31,1.31,0,0,1,668.58,143.28Zm-14.33,54.66c3.38,0,3.38,5.25,0,5.25S650.87,197.94,654.25,197.94Zm-28-35.13c0-2.53,3.93-2.53,3.93,0v1.3a2,2,0,0,1-3.93,0Zm-34.49-25.4c2.54,0,2.54,3.94,0,3.94S589.23,137.41,591.76,137.41Zm-29.94,50.8c-2.53,0-2.53-3.93,0-3.93A2,2,0,0,1,561.82,188.21Zm-2.6-7.84c2.54,0,2.54,3.94,0,3.94S556.68,180.37,559.22,180.37ZM548.8,159.52h1.3a4.59,4.59,0,1,1,0,9.18h-1.3a4.59,4.59,0,1,1,0-9.18Zm-26.7-7.12a2,2,0,0,1,3.93,0v.72c0,2.53-3.93,2.53-3.93,0Zm-18.86,61.17c3.38,0,3.38,5.24,0,5.24S499.86,213.57,503.24,213.57Zm-13-72.9a1.31,1.31,0,0,1,0,2.62A1.31,1.31,0,0,1,490.22,140.67Zm-9.11,44.91a2,2,0,0,1,0,3.93A2,2,0,0,1,481.11,185.58Zm-63.78-29.94a1.94,1.94,0,0,1,.66.13,2,2,0,0,1,2.37,1.87c.09,3.25-5.3,3.08-5,0A2,2,0,0,1,417.33,155.64Zm-49.48,33.2a1.31,1.31,0,0,1,0,2.62A1.31,1.31,0,0,1,367.85,188.84ZM19,379.56a2,2,0,0,1,0,3.93C16.42,383.49,16.42,379.56,19,379.56Zm1.31,188.79a2,2,0,0,1,0-3.93C22.79,564.42,22.79,568.35,20.26,568.35Zm16.92-89.83a2,2,0,0,1,0-3.93A2,2,0,0,1,37.18,478.52Zm243.45-261a1.31,1.31,0,0,1,0,2.62A1.31,1.31,0,0,1,280.63,217.48Zm-13,.66a.66.66,0,0,1,0,1.31A.66.66,0,0,1,267.61,218.14ZM162.16,306.65c2.53,0,2.53,3.93,0,3.93A2,2,0,0,1,162.16,306.65ZM73.63,353.52a2,2,0,0,1,0,3.93A2,2,0,0,1,73.63,353.52ZM46.29,518.22a1.31,1.31,0,0,1,0-2.62A1.31,1.31,0,0,1,46.29,518.22Zm6.51,69.66c-2.54,0-2.54-3.94,0-3.94S55.34,587.88,52.8,587.88ZM55.41,432.3a1.31,1.31,0,0,1,0-2.62A1.31,1.31,0,0,1,55.41,432.3Zm14.32,74.87c-2.54,0-2.54-3.94,0-3.94S72.26,507.17,69.73,507.17Zm2.51-26.62-1.3-1.3c-1.8-1.79,1-4.57,2.78-2.78l1.3,1.3C76.82,479.56,74,482.34,72.24,480.55Zm6.6,85.84a1.31,1.31,0,0,1,0-2.62A1.31,1.31,0,0,1,78.84,566.39ZM80.14,319a1.31,1.31,0,0,1,0-2.62A1.31,1.31,0,0,1,80.14,319Zm11.1,123.67a4.59,4.59,0,1,1-9.18,0v-1.3a4.59,4.59,0,1,1,9.18,0ZM106.18,392a1.32,1.32,0,0,1,0-2.63A1.32,1.32,0,0,1,106.18,392Zm3,40-1.31-1.3a1.31,1.31,0,0,1,1.86-1.85l1.3,1.29A1.31,1.31,0,0,1,109.16,431.92Zm12.64,53.76a1.31,1.31,0,0,1,0-2.62A1.31,1.31,0,0,1,121.8,485.68Zm2.6-163.37h-1.3a3.28,3.28,0,1,1,0-6.55h1.3a3.28,3.28,0,1,1,0,6.55Zm7.81,194c-2.53,0-2.53-3.94,0-3.94S134.75,516.28,132.21,516.28Zm15.63-233c-2.54,0-2.54-3.94,0-3.94S150.37,283.25,147.84,283.25Zm18.22,94.37a1.31,1.31,0,0,1,0-2.62A1.31,1.31,0,0,1,166.06,377.62Zm7.81,128.24c-2.53,0-2.53-3.93,0-3.93A2,2,0,0,1,173.87,505.86ZM191.72,441c-.43.44-.86.87-1.3,1.3a1.31,1.31,0,0,1-1.85-1.85l1.3-1.3A1.31,1.31,0,0,1,191.72,441Zm12.11-58.79c0,3.38-5.24,3.38-5.24,0v-.72c0-3.38,5.24-3.38,5.24,0Zm27.92,95.32-2.6,1.31c-1.51.75-2.84-1.51-1.32-2.27l2.6-1.31C231.93,474.54,233.26,476.8,231.75,477.56Zm-.6-122.74h1.31c2.53,0,2.53,3.93,0,3.93h-1.31C228.62,358.75,228.62,354.82,231.15,354.82Zm4,69.75-1.3,1.3a2,2,0,0,1-2.78-2.78l1.3-1.3C234.16,420,237,422.78,235.15,424.57Zm41.57,12.95c-3.38,0-3.38-5.24,0-5.24S280.1,437.52,276.72,437.52ZM288.06,372l-1.3,1.31a1.32,1.32,0,0,1-1.86-1.86l1.31-1.3A1.31,1.31,0,0,1,288.06,372ZM292,262.4l-8.6,6.41a2,2,0,1,1-2.45-3.28l8.6-6.41A2,2,0,0,1,292,262.4Zm6-11.45L276.39,267l-6.3,4.7L266,274.81a3.66,3.66,0,1,0,4.35,5.84l10.45-7.79c3-2.26,5.65,1.3,2.64,3.54l-96.22,71.42c-8.14,6.07-19.23,5-24.77-2.46S159,327,167.11,320.92L250,259.41l13.29-9.92,14.55-10.85a3.66,3.66,0,1,1,4.36,5.84l-14.55,10.85-13.29,9.92-3,2.22a3.66,3.66,0,1,0,4.36,5.84l10-7.43,6.31-4.7,21.53-16.07a3.66,3.66,0,1,1,4.36,5.84Zm5.63-17.67-9.84,7.33a2.34,2.34,0,1,1-2.79-3.75l9.83-7.34a2.34,2.34,0,0,1,2.8,3.76Zm9.61,88.37a1.32,1.32,0,0,1,0-2.63A1.32,1.32,0,0,1,313.17,321.65Zm2.08-79.74-6.7,5a1.59,1.59,0,1,1-1.9-2.55l6.7-5a1.59,1.59,0,1,1,1.9,2.56Zm24,203.41h-1.3a1.31,1.31,0,0,1,0-2.62h1.3A1.31,1.31,0,0,1,339.21,445.32Zm13-52.07a1.31,1.31,0,0,1,0-2.62A1.31,1.31,0,0,1,352.23,393.25Zm3.9,84.62a1.31,1.31,0,0,1,0-2.62A1.31,1.31,0,0,1,356.13,477.87ZM367,336.42l-1.3,1.3c-.6.6-1.53-.33-.93-.92l1.3-1.31A.66.66,0,0,1,367,336.42Zm16.46,99.79a1.31,1.31,0,0,1,0-2.62A1.31,1.31,0,0,1,383.47,436.21Zm31.24-90.48h-1.3a2,2,0,0,1,0-3.93h1.3A2,2,0,0,1,414.71,345.73Zm23.45,107.39a1.32,1.32,0,0,1-2.63,0v-1.3a1.32,1.32,0,0,1,2.63,0Zm5.2-52.06a1.31,1.31,0,0,1,0-2.62A1.31,1.31,0,0,1,443.36,401.06ZM470.69,431a1.31,1.31,0,0,1,0-2.62A1.31,1.31,0,0,1,470.69,431Zm10.42,54.68a1.31,1.31,0,0,1,0-2.62A1.31,1.31,0,0,1,481.11,485.68Zm94.37-134.1a2,2,0,0,1,3.93,0v1.3a2,2,0,0,1-3.93,0Zm-75.22,33.47-1.3,1.3a1.31,1.31,0,0,1-1.85-1.85l1.3-1.3A1.31,1.31,0,0,1,500.26,385.05ZM541,487a1.31,1.31,0,0,1-2.62,0v-1.3a1.31,1.31,0,0,1,2.62,0Zm18.14-67.48,2.59-1.31a2.67,2.67,0,0,1,3.59.94,2.63,2.63,0,0,1-.94,3.59l-2.6,1.31a2.66,2.66,0,0,1-3.58-.94A2.63,2.63,0,0,1,559.14,419.49Zm5.29,119.56a1.31,1.31,0,0,1,0-2.62A1.31,1.31,0,0,1,564.43,539.05Zm40.35-46.21h-1.3a2,2,0,0,1,0-3.93h1.3A2,2,0,0,1,604.78,492.84Zm28.64,32.55c-2.53,0-2.53-3.94,0-3.94S636,525.39,633.42,525.39Zm31.71,12.82-1.3,1.3a.66.66,0,0,1-.93-.93l1.31-1.3C664.8,536.68,665.73,537.61,665.13,538.21Zm67.22-48.64a1.32,1.32,0,0,1,2.63,0v1.31a1.32,1.32,0,0,1-2.63,0Zm0,61.83a2,2,0,0,1,0,3.93C729.83,555.33,729.83,551.4,732.36,551.4Zm-29.94-70.3a2,2,0,0,1,0,3.93A2,2,0,0,1,702.42,481.1ZM701.12,515a2,2,0,0,1,0,3.93A2,2,0,0,1,701.12,515ZM689.4,577.44a2,2,0,0,1,0,3.93C686.87,581.37,686.87,577.44,689.4,577.44Zm-11.71-58.59c2.53,0,2.53,3.94,0,3.94S675.15,518.85,677.69,518.85Z" transform="translate(-10.2 -122.24)"/><path class="cls-2" d="M61.32,122.24l-29.27,20.2a19.69,19.69,0,0,1-21.44.6v67.11L138,122.24ZM20.26,185a1.31,1.31,0,0,1,0-2.62A1.31,1.31,0,0,1,20.26,185ZM50.2,140.69a1.31,1.31,0,0,1,0-2.62A1.31,1.31,0,0,1,50.2,140.69Zm36.45-2.59c-3.38,0-3.38-5.25,0-5.25S90,138.1,86.65,138.1Z" transform="translate(-10.2 -122.24)"/><path class="cls-2" d="M721.84,154.62a53.63,53.63,0,0,1-1.34,16.66,2.81,2.81,0,0,1-.67,2.56,50.29,50.29,0,0,1-9,17.6c-11.64,14.41-33.44,17-50.73,16.47-16.84-.55-34.37-3.64-49.79-10.69a36.57,36.57,0,0,1-4.53,8.59c-4.9,6.81-12.69,11.3-20.47,14-15.32,5.36-33,6.86-48.7,2.24a67.8,67.8,0,0,1-9.89-3.61,59,59,0,0,1-6.64,13.4,36.36,36.36,0,0,1-5.45,6.71c4.72,2.05,9,4.6,11.32,7.63,7.09,9.25,7.48,16.28,7.48,16.28a7.93,7.93,0,0,0,.89,2.13c.69,1.18,4.43,12.51,4.53,14.57s0,3.15-1.87,5.71a4.16,4.16,0,0,1-4.43,1.78,19.89,19.89,0,0,1-2.66,3.54c-2.07,2.37-5.61,1.38-5.61,1.38l-1,1.67c-1,1.68-6.89,2.56-9.35,2.27s-3.94-5-3.94-5-2.07.59-4.83-1.68-1.28-10.14,0-12.7,3.05-1.67,3.05-2.07-1.37-4.63-1.37-4.63a16.21,16.21,0,0,0-12.29-11.14l2.31,45.28H484.85a42.3,42.3,0,0,1-5.14,15.36c-.37,1.14-.32,4.14-.12,7.43.07,1.14.16,2.31.26,3.45.29,3.39.65,6.5.78,7.66,0,0,4.59-3.38,9.06,0a11.82,11.82,0,0,1,3.22,5.17h0v0c.14.38.28.78.41,1.19v0c.13.4.25.81.36,1.22a.3.3,0,0,1,0,.1c.19.69.36,1.41.51,2.14L740.08,177.65v-23.9A50.76,50.76,0,0,1,721.84,154.62ZM551.41,300.17c-2.54,0-2.54-3.94,0-3.94S554,300.17,551.41,300.17Zm0-66.39c-2.54,0-2.54-3.94,0-3.94S554,233.78,551.41,233.78ZM575.68,244l-1.3-1.3c-.6-.6.33-1.53.92-.93.44.43.87.87,1.3,1.3C577.2,243.66,576.27,244.59,575.68,244Zm50.6,9.95c0,2.54-3.94,2.54-3.94,0v-1.3c0-2.54,3.94-2.54,3.94,0Z" transform="translate(-10.2 -122.24)"/><path class="cls-3" d="M20.26,182.33a1.31,1.31,0,0,0,0,2.62A1.31,1.31,0,0,0,20.26,182.33Z" transform="translate(-10.2 -122.24)"/><path class="cls-3" d="M490.22,143.29a1.31,1.31,0,0,0,0-2.62A1.31,1.31,0,0,0,490.22,143.29Z" transform="translate(-10.2 -122.24)"/><path class="cls-3" d="M296.25,165.43a1.32,1.32,0,0,0,1.1-2l-2.13,1.47A1.21,1.21,0,0,0,296.25,165.43Z" transform="translate(-10.2 -122.24)"/><path class="cls-3" d="M230.43,475.29l-2.6,1.31c-1.52.76-.19,3,1.32,2.27l2.6-1.31C233.26,476.8,231.93,474.54,230.43,475.29Z" transform="translate(-10.2 -122.24)"/><path class="cls-3" d="M668.58,145.9a1.31,1.31,0,0,0,0-2.62A1.31,1.31,0,0,0,668.58,145.9Z" transform="translate(-10.2 -122.24)"/><path class="cls-3" d="M470.69,428.38a1.31,1.31,0,0,0,0,2.62A1.31,1.31,0,0,0,470.69,428.38Z" transform="translate(-10.2 -122.24)"/><path class="cls-3" d="M55.41,429.68a1.31,1.31,0,0,0,0,2.62A1.31,1.31,0,0,0,55.41,429.68Z" transform="translate(-10.2 -122.24)"/><path class="cls-3" d="M46.29,515.6a1.31,1.31,0,0,0,0,2.62A1.31,1.31,0,0,0,46.29,515.6Z" transform="translate(-10.2 -122.24)"/><path class="cls-3" d="M575.3,241.76c-.59-.6-1.52.33-.92.93l1.3,1.3c.59.6,1.52-.33.92-.93C576.17,242.63,575.74,242.19,575.3,241.76Z" transform="translate(-10.2 -122.24)"/><path class="cls-3" d="M664.21,537.28l-1.31,1.3a.66.66,0,0,0,.93.93l1.3-1.3C665.73,537.61,664.8,536.68,664.21,537.28Z" transform="translate(-10.2 -122.24)"/><path class="cls-3" d="M607.39,404.31a.66.66,0,0,0,0-1.31A.66.66,0,0,0,607.39,404.31Z" transform="translate(-10.2 -122.24)"/><path class="cls-3" d="M366.08,335.49l-1.3,1.31c-.6.59.33,1.52.93.92l1.3-1.3A.66.66,0,0,0,366.08,335.49Z" transform="translate(-10.2 -122.24)"/><path class="cls-3" d="M267.61,219.45a.66.66,0,0,0,0-1.31A.66.66,0,0,0,267.61,219.45Z" transform="translate(-10.2 -122.24)"/><path class="cls-3" d="M367.85,191.46a1.31,1.31,0,0,0,0-2.62A1.31,1.31,0,0,0,367.85,191.46Z" transform="translate(-10.2 -122.24)"/><path class="cls-3" d="M280.63,220.1a1.31,1.31,0,0,0,0-2.62A1.31,1.31,0,0,0,280.63,220.1Z" transform="translate(-10.2 -122.24)"/><path class="cls-3" d="M286.21,370.18l-1.31,1.3a1.32,1.32,0,0,0,1.86,1.86l1.3-1.31A1.31,1.31,0,0,0,286.21,370.18Z" transform="translate(-10.2 -122.24)"/><path class="cls-3" d="M313.17,319a1.32,1.32,0,0,0,0,2.63A1.32,1.32,0,0,0,313.17,319Z" transform="translate(-10.2 -122.24)"/><path class="cls-3" d="M593.07,198a1.31,1.31,0,0,0,0-2.62A1.31,1.31,0,0,0,593.07,198Z" transform="translate(-10.2 -122.24)"/><path class="cls-3" d="M538.38,485.67V487a1.31,1.31,0,0,0,2.62,0v-1.3A1.31,1.31,0,0,0,538.38,485.67Z" transform="translate(-10.2 -122.24)"/><path class="cls-3" d="M339.21,442.7h-1.3a1.31,1.31,0,0,0,0,2.62h1.3A1.31,1.31,0,0,0,339.21,442.7Z" transform="translate(-10.2 -122.24)"/><path class="cls-3" d="M166.06,375a1.31,1.31,0,0,0,0,2.62A1.31,1.31,0,0,0,166.06,375Z" transform="translate(-10.2 -122.24)"/><path class="cls-3" d="M80.14,316.42a1.31,1.31,0,0,0,0,2.62A1.31,1.31,0,0,0,80.14,316.42Z" transform="translate(-10.2 -122.24)"/><path class="cls-3" d="M579.41,352.88v-1.3a2,2,0,0,0-3.93,0v1.3A2,2,0,0,0,579.41,352.88Z" transform="translate(-10.2 -122.24)"/><path class="cls-3" d="M198.59,381.52v.72c0,3.38,5.24,3.38,5.24,0v-.72C203.83,378.14,198.59,378.14,198.59,381.52Z" transform="translate(-10.2 -122.24)"/><path class="cls-3" d="M276.72,432.28c-3.38,0-3.38,5.24,0,5.24S280.1,432.28,276.72,432.28Z" transform="translate(-10.2 -122.24)"/><path class="cls-4" d="M78.84,563.77a1.31,1.31,0,0,0,0,2.62A1.31,1.31,0,0,0,78.84,563.77Z" transform="translate(-10.2 -122.24)"/><path class="cls-4" d="M12.44,299.51a1.31,1.31,0,0,0,0-2.62A1.31,1.31,0,0,0,12.44,299.51Z" transform="translate(-10.2 -122.24)"/><path class="cls-4" d="M39.78,251.35a1.32,1.32,0,0,0,0-2.63A1.32,1.32,0,0,0,39.78,251.35Z" transform="translate(-10.2 -122.24)"/><path class="cls-4" d="M481.11,483.06a1.31,1.31,0,0,0,0,2.62A1.31,1.31,0,0,0,481.11,483.06Z" transform="translate(-10.2 -122.24)"/><path class="cls-4" d="M440.75,489.57a1.21,1.21,0,0,0-.89.35l2.09.5A1.2,1.2,0,0,0,440.75,489.57Z" transform="translate(-10.2 -122.24)"/><path class="cls-4" d="M564.43,536.43a1.31,1.31,0,0,0,0,2.62A1.31,1.31,0,0,0,564.43,536.43Z" transform="translate(-10.2 -122.24)"/><path class="cls-4" d="M356.13,475.25a1.31,1.31,0,0,0,0,2.62A1.31,1.31,0,0,0,356.13,475.25Z" transform="translate(-10.2 -122.24)"/><path class="cls-4" d="M383.47,433.59a1.31,1.31,0,0,0,0,2.62A1.31,1.31,0,0,0,383.47,433.59Z" transform="translate(-10.2 -122.24)"/><path class="cls-4" d="M352.23,390.63a1.31,1.31,0,0,0,0,2.62A1.31,1.31,0,0,0,352.23,390.63Z" transform="translate(-10.2 -122.24)"/><path class="cls-4" d="M189.87,439.18l-1.3,1.3a1.31,1.31,0,0,0,1.85,1.85c.44-.43.87-.86,1.3-1.3A1.31,1.31,0,0,0,189.87,439.18Z" transform="translate(-10.2 -122.24)"/><path class="cls-4" d="M121.8,483.06a1.31,1.31,0,0,0,0,2.62A1.31,1.31,0,0,0,121.8,483.06Z" transform="translate(-10.2 -122.24)"/><path class="cls-4" d="M109.71,428.77a1.31,1.31,0,0,0-1.86,1.85l1.31,1.3a1.31,1.31,0,0,0,1.85-1.86Z" transform="translate(-10.2 -122.24)"/><path class="cls-4" d="M106.18,389.32a1.32,1.32,0,0,0,0,2.63A1.32,1.32,0,0,0,106.18,389.32Z" transform="translate(-10.2 -122.24)"/><path class="cls-4" d="M735,490.88v-1.31a1.32,1.32,0,0,0-2.63,0v1.31A1.32,1.32,0,0,0,735,490.88Z" transform="translate(-10.2 -122.24)"/><path class="cls-4" d="M50.2,138.07a1.31,1.31,0,0,0,0,2.62A1.31,1.31,0,0,0,50.2,138.07Z" transform="translate(-10.2 -122.24)"/><path class="cls-5" d="M232.46,358.75c2.53,0,2.53-3.93,0-3.93h-1.31c-2.53,0-2.53,3.93,0,3.93Z" transform="translate(-10.2 -122.24)"/><path class="cls-5" d="M414.71,341.8h-1.3a2,2,0,0,0,0,3.93h1.3A2,2,0,0,0,414.71,341.8Z" transform="translate(-10.2 -122.24)"/><path class="cls-5" d="M622.34,252.64v1.3c0,2.54,3.94,2.54,3.94,0v-1.3C626.28,250.1,622.34,250.1,622.34,252.64Z" transform="translate(-10.2 -122.24)"/><path class="cls-5" d="M701.12,518.88a2,2,0,0,0,0-3.93A2,2,0,0,0,701.12,518.88Z" transform="translate(-10.2 -122.24)"/><path class="cls-5" d="M629.52,590.45h-.1l2,1.84A1.85,1.85,0,0,0,629.52,590.45Z" transform="translate(-10.2 -122.24)"/><path class="cls-5" d="M526,153.12v-.72a2,2,0,0,0-3.93,0v.72C522.1,155.65,526,155.65,526,153.12Z" transform="translate(-10.2 -122.24)"/><path class="cls-5" d="M591.76,141.35c2.54,0,2.54-3.94,0-3.94S589.23,141.35,591.76,141.35Z" transform="translate(-10.2 -122.24)"/><path class="cls-5" d="M52.8,583.94c-2.54,0-2.54,3.94,0,3.94S55.34,583.94,52.8,583.94Z" transform="translate(-10.2 -122.24)"/><path class="cls-5" d="M20.26,564.42a2,2,0,0,0,0,3.93C22.79,568.35,22.79,564.42,20.26,564.42Z" transform="translate(-10.2 -122.24)"/><path class="cls-5" d="M73.72,476.47c-1.8-1.79-4.58,1-2.78,2.78l1.3,1.3c1.8,1.79,4.58-1,2.78-2.78Z" transform="translate(-10.2 -122.24)"/><path class="cls-5" d="M69.73,503.23c-2.54,0-2.54,3.94,0,3.94S72.26,503.23,69.73,503.23Z" transform="translate(-10.2 -122.24)"/><path class="cls-5" d="M37.18,474.59a2,2,0,0,0,0,3.93A2,2,0,0,0,37.18,474.59Z" transform="translate(-10.2 -122.24)"/><path class="cls-5" d="M19,379.56c-2.53,0-2.53,3.93,0,3.93A2,2,0,0,0,19,379.56Z" transform="translate(-10.2 -122.24)"/><path class="cls-5" d="M73.63,357.45a2,2,0,0,0,0-3.93A2,2,0,0,0,73.63,357.45Z" transform="translate(-10.2 -122.24)"/><path class="cls-5" d="M604.78,488.91h-1.3a2,2,0,0,0,0,3.93h1.3A2,2,0,0,0,604.78,488.91Z" transform="translate(-10.2 -122.24)"/><path class="cls-5" d="M633.42,521.45c-2.53,0-2.53,3.94,0,3.94S636,521.45,633.42,521.45Z" transform="translate(-10.2 -122.24)"/><path class="cls-5" d="M677.69,522.79c2.53,0,2.53-3.94,0-3.94S675.15,522.79,677.69,522.79Z" transform="translate(-10.2 -122.24)"/><path class="cls-5" d="M702.42,485a2,2,0,0,0,0-3.93A2,2,0,0,0,702.42,485Z" transform="translate(-10.2 -122.24)"/><path class="cls-5" d="M706.33,175.85c3.38,0,3.38-5.25,0-5.25S702.94,175.85,706.33,175.85Z" transform="translate(-10.2 -122.24)"/><path class="cls-5" d="M86.65,132.85c-3.38,0-3.38,5.25,0,5.25S90,132.85,86.65,132.85Z" transform="translate(-10.2 -122.24)"/><path class="cls-5" d="M503.24,218.81c3.38,0,3.38-5.24,0-5.24S499.86,218.81,503.24,218.81Z" transform="translate(-10.2 -122.24)"/><path class="cls-5" d="M654.25,203.19c3.38,0,3.38-5.25,0-5.25S650.87,203.19,654.25,203.19Z" transform="translate(-10.2 -122.24)"/><path class="cls-5" d="M612,442a2.62,2.62,0,1,0,3.71-3.71l-1.3-1.3a2.66,2.66,0,0,0-.51-.39l-3.91,2.7a2.51,2.51,0,0,0,.71,1.4Z" transform="translate(-10.2 -122.24)"/><path class="cls-5" d="M561.78,424l2.6-1.31a2.63,2.63,0,0,0,.94-3.59,2.67,2.67,0,0,0-3.59-.94l-2.59,1.31a2.63,2.63,0,0,0-.94,3.59A2.66,2.66,0,0,0,561.78,424Z" transform="translate(-10.2 -122.24)"/><path class="cls-6" d="M420.36,157.64a2,2,0,0,0-2.37-1.87,1.94,1.94,0,0,0-.66-.13,2,2,0,0,0-2,2C415.06,160.72,420.45,160.89,420.36,157.64Z" transform="translate(-10.2 -122.24)"/><path class="cls-6" d="M481.11,189.51a2,2,0,0,0,0-3.93A2,2,0,0,0,481.11,189.51Z" transform="translate(-10.2 -122.24)"/><path class="cls-6" d="M551.41,229.84c-2.54,0-2.54,3.94,0,3.94S554,229.84,551.41,229.84Z" transform="translate(-10.2 -122.24)"/><path class="cls-6" d="M559.22,184.31c2.54,0,2.54-3.94,0-3.94S556.68,184.31,559.22,184.31Z" transform="translate(-10.2 -122.24)"/><path class="cls-6" d="M132.21,512.34c-2.53,0-2.53,3.94,0,3.94S134.75,512.34,132.21,512.34Z" transform="translate(-10.2 -122.24)"/><path class="cls-6" d="M173.87,501.93c-2.53,0-2.53,3.93,0,3.93A2,2,0,0,0,173.87,501.93Z" transform="translate(-10.2 -122.24)"/><path class="cls-7" d="M673.78,426.45a2,2,0,0,0,0-3.93A2,2,0,0,0,673.78,426.45Z" transform="translate(-10.2 -122.24)"/><path class="cls-7" d="M686.8,392.6a1.94,1.94,0,0,0,1.81-2.6,14.62,14.62,0,0,0-3.56-.17A2,2,0,0,0,686.8,392.6Z" transform="translate(-10.2 -122.24)"/><path class="cls-7" d="M551.41,296.23c-2.54,0-2.54,3.94,0,3.94S554,296.23,551.41,296.23Z" transform="translate(-10.2 -122.24)"/><path class="cls-7" d="M232.37,421.79l-1.3,1.3a2,2,0,0,0,2.78,2.78l1.3-1.3C237,422.78,234.16,420,232.37,421.79Z" transform="translate(-10.2 -122.24)"/><path class="cls-7" d="M162.16,310.58c2.53,0,2.53-3.93,0-3.93A2,2,0,0,0,162.16,310.58Z" transform="translate(-10.2 -122.24)"/><path class="cls-7" d="M561.82,188.21a2,2,0,0,0,0-3.93C559.29,184.28,559.29,188.21,561.82,188.21Z" transform="translate(-10.2 -122.24)"/><path class="cls-7" d="M630.18,164.11v-1.3c0-2.53-3.93-2.53-3.93,0v1.3A2,2,0,0,0,630.18,164.11Z" transform="translate(-10.2 -122.24)"/><path class="cls-7" d="M689.4,581.37a2,2,0,0,0,0-3.93C686.87,577.44,686.87,581.37,689.4,581.37Z" transform="translate(-10.2 -122.24)"/><path class="cls-7" d="M732.36,555.33a2,2,0,0,0,0-3.93C729.83,551.4,729.83,555.33,732.36,555.33Z" transform="translate(-10.2 -122.24)"/><path class="cls-7" d="M633.42,365.26a2,2,0,0,0,0-3.93C630.89,361.33,630.89,365.26,633.42,365.26Z" transform="translate(-10.2 -122.24)"/><path class="cls-7" d="M147.84,279.31c-2.54,0-2.54,3.94,0,3.94S150.37,279.31,147.84,279.31Z" transform="translate(-10.2 -122.24)"/><path class="cls-8" d="M124.4,315.76h-1.3a3.28,3.28,0,1,0,0,6.55h1.3a3.28,3.28,0,1,0,0-6.55Z" transform="translate(-10.2 -122.24)"/><path class="cls-8" d="M86.65,436.82a4.64,4.64,0,0,0-4.59,4.59v1.3a4.59,4.59,0,1,0,9.18,0v-1.3A4.64,4.64,0,0,0,86.65,436.82Z" transform="translate(-10.2 -122.24)"/><path class="cls-8" d="M734.32,457.69c-.43.43-.86.87-1.3,1.3a4.59,4.59,0,0,0,6.5,6.49l.56-.57V457.1A4.65,4.65,0,0,0,734.32,457.69Z" transform="translate(-10.2 -122.24)"/><path class="cls-8" d="M294.94,477.17a4.3,4.3,0,0,0-4.41,4.27c2.89-.35,5.79-.67,8.68-1A4.2,4.2,0,0,0,294.94,477.17Z" transform="translate(-10.2 -122.24)"/><path class="cls-9" d="M548.8,168.7h1.3a4.59,4.59,0,1,0,0-9.18h-1.3a4.59,4.59,0,1,0,0,9.18Z" transform="translate(-10.2 -122.24)"/><path class="cls-9" d="M498.41,383.2l-1.3,1.3a1.31,1.31,0,0,0,1.85,1.85l1.3-1.3A1.31,1.31,0,0,0,498.41,383.2Z" transform="translate(-10.2 -122.24)"/><path class="cls-9" d="M443.36,398.44a1.31,1.31,0,0,0,0,2.62A1.31,1.31,0,0,0,443.36,398.44Z" transform="translate(-10.2 -122.24)"/><path class="cls-9" d="M435.53,451.82v1.3a1.32,1.32,0,0,0,2.63,0v-1.3A1.32,1.32,0,0,0,435.53,451.82Z" transform="translate(-10.2 -122.24)"/><path class="cls-9" d="M730.69,149.42c.43-.44.87-.87,1.3-1.3a1.32,1.32,0,0,0-1.86-1.86c-.43.44-.86.87-1.3,1.3A1.32,1.32,0,0,0,730.69,149.42Z" transform="translate(-10.2 -122.24)"/><path class="cls-9" d="M12.44,328.81c.13,0,.24,0,.35,0a19.18,19.18,0,0,1-.79-3.86,1.8,1.8,0,0,0-1.39,1.38v1.09A1.8,1.8,0,0,0,12.44,328.81Z" transform="translate(-10.2 -122.24)"/><path class="cls-9" d="M24.16,300.17c2.54,0,2.54-3.94,0-3.94S21.62,300.17,24.16,300.17Z" transform="translate(-10.2 -122.24)"/><path class="cls-9" d="M19.09,307.72a2.48,2.48,0,0,0-1.44-.42c-2.41,0-3.09,2.66-2.07,4.19A19.83,19.83,0,0,1,19.09,307.72Z" transform="translate(-10.2 -122.24)"/><path class="cls-9" d="M703.72,161.53H705a2.62,2.62,0,1,0,0-5.24h-1.3a2.62,2.62,0,0,0,0,5.24Z" transform="translate(-10.2 -122.24)"/><path class="cls-9" d="M720.5,171.28c-.2.86-.43,1.71-.67,2.56A2.81,2.81,0,0,0,720.5,171.28Z" transform="translate(-10.2 -122.24)"/><path class="cls-9" d="M716.23,173.82c.47-1.46.89-2.95,1.27-4.46C715.38,169.76,715,172.48,716.23,173.82Z" transform="translate(-10.2 -122.24)"/><path class="cls-9" d="M718.75,162.77a42.71,42.71,0,0,0,.34-5.16C716.17,157.86,716.06,162.22,718.75,162.77Z" transform="translate(-10.2 -122.24)"/><path class="cls-10" d="M685,122.24h-1.51a1.35,1.35,0,0,0,1.51,0Z" transform="translate(-10.2 -122.24)"/><path class="cls-10" d="M639.56,124.13a1.31,1.31,0,0,0-1.94,1.76l2.12-1.57Z" transform="translate(-10.2 -122.24)"/><path class="cls-10" d="M663.37,132.88a1.33,1.33,0,0,0,.82-2.33l-2,1.5A1.19,1.19,0,0,0,663.37,132.88Z" transform="translate(-10.2 -122.24)"/><path class="cls-10" d="M655.55,138.09a1.31,1.31,0,0,0,1.12-2l-2.07,1.53A1.2,1.2,0,0,0,655.55,138.09Z" transform="translate(-10.2 -122.24)"/><path class="cls-11" d="M51.94,256l1.18,1.71A21.78,21.78,0,0,1,47.56,288L20.41,306.71c-.46.32-.89.66-1.32,1A19.8,19.8,0,0,0,12,324.92a19.18,19.18,0,0,0,.79,3.86,19.7,19.7,0,0,0,30,10.36L295.22,164.91l2.13-1.47,59.71-41.2H138L10.61,210.15V258l11-7.61A21.77,21.77,0,0,1,51.94,256Z" transform="translate(-10.2 -122.24)"/><path class="cls-11" d="M32.05,142.44l29.27-20.2H10.61V143A19.69,19.69,0,0,0,32.05,142.44Z" transform="translate(-10.2 -122.24)"/><path class="cls-11" d="M494.31,347.81l0,.16c.16.88.29,1.79.39,2.7a1.49,1.49,0,0,1,0,.21c.1.9.16,1.8.18,2.69v.25c0,.39,0,.79,0,1.18v.16c0,.43,0,.85-.06,1.27a2.29,2.29,0,0,0,0,.25c0,.35-.07.7-.11,1l0,.25c-.06.4-.12.79-.19,1.18,0,.06,0,.13,0,.2-.06.32-.14.64-.22.94a2.68,2.68,0,0,1-.07.27c-.1.36-.21.71-.33,1a.5.5,0,0,1-.05.13c-.11.29-.23.58-.36.85,0,.08-.07.17-.11.25-.16.3-.32.6-.49.87-4.33,6.83-15.6,14.84-19.7,8.41-.24-.39-.47-.75-.67-1.1-.07-.1-.12-.2-.18-.3s-.27-.46-.38-.67l-.17-.31-.29-.54c-.05-.1-.09-.19-.14-.28l-.22-.48a2.29,2.29,0,0,1-.1-.23c-.07-.14-.12-.28-.17-.41s-.05-.13-.08-.19l-.12-.37a1,1,0,0,1,0-.14,2.77,2.77,0,0,1-.09-.33.36.36,0,0,0,0-.1,1.65,1.65,0,0,1,0-.3.07.07,0,0,1,0-.05,2.72,2.72,0,0,1,0-.28h0a.94.94,0,0,1,.15-.52h0l.07-.07,0,0,0,0h0l0,0h0l-.21.05A13.43,13.43,0,0,0,490,382.94l110.33-76.16A14.86,14.86,0,0,1,621,310.57l.8,1.16A14.85,14.85,0,0,1,618,332.39l-28.86,19.92a13.44,13.44,0,1,0,15.27,22.11l19.31-13.32a14.85,14.85,0,0,1,16.87,24.44l-76.35,52.69a13.44,13.44,0,0,0,15.26,22.12L610,439.26l3.91-2.7,64.15-44.27a14.11,14.11,0,0,1,7-2.46,14.62,14.62,0,0,1,3.56.17,14.14,14.14,0,0,1,5.55,25.56l-38.8,26.79a1,1,0,0,1-.37.87l-4,3a1,1,0,0,1-.77.16,13.19,13.19,0,0,0-2,2.87l1.51-1.13c1.43-1.06,2.66.61,1.24,1.66L647,452.71a13.43,13.43,0,0,0,20.8,13.67l72.24-49.86V177.65L494.22,347.34Z" transform="translate(-10.2 -122.24)"/><path class="cls-12" d="M721.48,151.46a41.11,41.11,0,0,0-3.28-11.13c-2.19-4.69-9.34-13.44-15.58-10.72-5.91,2.57-4,12.23-.84,16.24,4.09,5.25,10.78,7.33,17.16,8.36a32.11,32.11,0,0,1,.15,3.4,42.71,42.71,0,0,1-.34,5.16,54.67,54.67,0,0,1-1.25,6.59c-.38,1.51-.8,3-1.27,4.46-.59,1.86-1.25,3.67-1.94,5.4-3.95,9.93-11,16.66-20.81,20.71-17.56,7.24-38.75,5.78-57,2.16a115.9,115.9,0,0,1-25.15-7.83,53.07,53.07,0,0,0,2-13.26c.23-7.79-1.94-16-8.35-21-5.9-4.54-13.55-4.69-16.52,3-2.39,6.16-.57,14.72,3,20.08,3.76,5.74,9.88,9.72,16,12.77-6.78,17.5-26,23.72-44,25.38a70.18,70.18,0,0,1-23.21-1.43,57.81,57.81,0,0,1-12.62-4.35,27.12,27.12,0,0,0,.73-10.05c-.67-4.93-4.67-13.22-10.92-9.27-5.31,3.36-2.85,11.67.21,15.56a22.49,22.49,0,0,0,6.28,5.27,63.31,63.31,0,0,1-4.67,10.28c-2,3.72-4.49,7.52-7.75,10,1.07.4,2.13.83,3.16,1.29a36.36,36.36,0,0,0,5.45-6.71,59,59,0,0,0,6.64-13.4,67.8,67.8,0,0,0,9.89,3.61c15.69,4.62,33.38,3.12,48.7-2.24,7.78-2.72,15.57-7.21,20.47-14a36.57,36.57,0,0,0,4.53-8.59c15.42,7.05,32.95,10.14,49.79,10.69,17.29.57,39.09-2.06,50.73-16.47a50.29,50.29,0,0,0,9-17.6c.24-.85.47-1.7.67-2.56a53.63,53.63,0,0,0,1.34-16.66,50.76,50.76,0,0,0,18.24-.87v-3.17A49.2,49.2,0,0,1,721.48,151.46Zm-19.41-13.11c-.25-2-.13-5.84,2.58-6,2-.14,4.19,1.56,5.64,2.72,4.49,3.6,6.58,9.29,7.92,14.7.11.42.19.85.27,1.29C711.24,149.71,703.09,146.49,702.07,138.35ZM524.82,213.84a20.19,20.19,0,0,1-5.65-5.27,9,9,0,0,1-.9-8.78c1.94-4.08,5.59.72,6.36,2.85A19.81,19.81,0,0,1,524.82,213.84ZM609,190.91c-.15.68-.32,1.35-.51,2-6.72-3.34-13.93-8.23-16.41-15.4a24.55,24.55,0,0,1-1-11.93c1.28-7.51,8.38-6.33,12.94-2.38C611.66,169.85,611,181.94,609,190.91Z" transform="translate(-10.2 -122.24)"/><path class="cls-13" d="M421,242.23c-6.08,3.06-20.27,6.75-31.7-16.71l-15,8L370,235h-.65s5.45,30.42,30.72,32.66l24.19,2.15c-.18-2.87-.31-5.7-.39-8.4C421.36,255.46,420,247.63,421,242.23Z" transform="translate(-10.2 -122.24)"/><path class="cls-14" d="M374.38,233.53l15-8c3.92-1.86,1.45-5.94,1.45-5.94s.13-.49,1.18-1,4.2-2.5,5-5.65-2.49-3.81-5.91-3a5.54,5.54,0,0,0-4.2,3.28s-.26,1.32-1.58-3.94-8.79-13-11.29-14.44-6.69,0-7.22,1.45a5,5,0,0,0,.92,4.72c1.18,1.58,7.09,7.49,7.09,8.14s-.79,2-1.84,1-11-8.4-14.18-8.27-3,2.5-3.28,5,2.36,3.28,5.25,4.73,4.34,1.84,5.25,4.2-1.31,1.31-1.31,1.31c-7.35-5.12-13-.79-14.18,1.31s1,5.65,4.33,5.12,9.59,2,9.59,2c.26,5.65,5,9.48,5,9.48H370Z" transform="translate(-10.2 -122.24)"/><path class="cls-14" d="M423.91,261.41c-.29-10,0-18.26.1-20.41l-.29-.21.29-.38a20.91,20.91,0,0,1-1.66-1.75,10.61,10.61,0,0,0-1.31,3.57C420,247.63,421.36,255.46,423.91,261.41Z" transform="translate(-10.2 -122.24)"/><path class="cls-14" d="M506.89,269.43s1.37,4.24,1.37,4.63-1.77-.49-3.05,2.07-2.75,10.44,0,12.7,4.83,1.68,4.83,1.68,1.47,4.72,3.94,5,8.37-.59,9.35-2.27l1-1.67s3.54,1,5.61-1.38a19.89,19.89,0,0,0,2.66-3.54,4.16,4.16,0,0,0,4.43-1.78c1.87-2.56,2-3.64,1.87-5.71s-3.84-13.39-4.53-14.57a7.93,7.93,0,0,1-.89-2.13S524.61,275.74,506.89,269.43Z" transform="translate(-10.2 -122.24)"/><path class="cls-15" d="M475.22,363v0l-.73.55-.17.11a6.65,6.65,0,0,1-.56.36l-.23.14-.53.29-.22.12L472,365c-.25.1-.52.19-.78.27l-.24.07-.24.07h0l0,0c.3.51.63,1.07,1,1.7,4.1,6.43,15.36-1.57,19.69-8.4,2.39-3.76,2.54-10.33,1.45-16a11.82,11.82,0,0,0-3.22-5.17c-4.47-3.39-9.05,0-9.06,0,0,.32.06.5.06.5C484.67,348.91,480.69,358.59,475.22,363Z" transform="translate(-10.2 -122.24)"/><path class="cls-15" d="M494.22,347.34c-.15-.73-.32-1.45-.51-2.14q.35,1.26.6,2.61Z" transform="translate(-10.2 -122.24)"/><path class="cls-16" d="M491.46,358.68c-4.33,6.83-15.59,14.83-19.69,8.4-.41-.63-.74-1.19-1-1.7h0l0,0,0,0-.07.07h0a.94.94,0,0,0-.15.52h0a2.72,2.72,0,0,0,0,.28.07.07,0,0,0,0,.05,1.65,1.65,0,0,0,0,.3.36.36,0,0,1,0,.1,2.77,2.77,0,0,0,.09.33,1,1,0,0,0,0,.14l.12.37c0,.06.05.12.08.19s.1.27.17.41a2.29,2.29,0,0,0,.1.23l.22.48c.05.09.09.18.14.28l.29.54.17.31c.11.21.25.44.38.67s.11.2.18.3c.2.35.43.71.67,1.1,4.1,6.43,15.37-1.58,19.7-8.41.17-.27.33-.57.49-.87,0-.08.07-.17.11-.25.13-.27.25-.56.36-.85a.5.5,0,0,0,.05-.13c.12-.33.23-.68.33-1a2.68,2.68,0,0,0,.07-.27c.08-.3.16-.62.22-.94,0-.07,0-.14,0-.2.07-.39.13-.78.19-1.18l0-.25c0-.34.08-.69.11-1a2.29,2.29,0,0,1,0-.25c0-.42.05-.84.06-1.27V355c0-.39,0-.79,0-1.18v-.25c0-.89-.08-1.79-.18-2.69a1.49,1.49,0,0,0,0-.21c-.1-.91-.23-1.82-.39-2.7l0-.16q-.26-1.35-.6-2.61a.3.3,0,0,0,0-.1c-.11-.41-.23-.82-.36-1.22v0c-.13-.41-.27-.81-.41-1.19v0h0C494,348.35,493.85,354.92,491.46,358.68Z" transform="translate(-10.2 -122.24)"/><path class="cls-17" d="M471.61,218.35c.77,2.79,1.21,4.7,1.21,4.7a9.47,9.47,0,0,1-1.76,4.81h0l15.67,3C484.16,222.36,471.61,218.35,471.61,218.35Z" transform="translate(-10.2 -122.24)"/><path class="cls-17" d="M484.67,291.78s.91,3.85.53,5.32h0a39.49,39.49,0,0,1-.13,4.39c5.65.06,5-4.4,5-4.4s-1.39-21.05-2.26-39.13l-.24,0-.78.08h0l-.2.73Z" transform="translate(-10.2 -122.24)"/><path class="cls-17" d="M492.71,221.09l-21.13-2.85,0,.11Z" transform="translate(-10.2 -122.24)"/><path class="cls-18" d="M471.61,218.35s12.55,4,15.13,12.53l6.53,1.26-.56-11-21.1-2.74Z" transform="translate(-10.2 -122.24)"/><path class="cls-18" d="M487.82,258c.87,18.08,2.26,39.13,2.26,39.13s.64,4.46-5,4.4c-.05.7-.13,1.4-.22,2.07h12.06l-2.31-45.28A22.65,22.65,0,0,0,487.82,258Z" transform="translate(-10.2 -122.24)"/><path class="cls-13" d="M429.34,289.22l5.2-.22,14.71.39,8.43,3.07,10.21-2.94,16.78,2.26,1.93-33-.22,3.83a1.88,1.88,0,0,1-.49-.13c-12.28-4.64-16.73-22.3-12.44-34.05l4.58,1.13c-2.28,5.46-1.94,13.58.91,19.87a27.85,27.85,0,0,1,2.74-4.63l4.92-7.29,6.89-5.34-.22-.05-6.53-1.26-15.67-3,.93.18c-.18.12-.86.58-1.94,1.27-2.09,2.73-5.76,6.1-12.21,9.6-15.27,8.27-25.7,10.73-32.4,6.5,0,0-2.73-2-.59-3.79A10.25,10.25,0,0,1,424,241c-.09,2.15-.39,10.41-.1,20.41.08,2.7.21,5.53.39,8.4a140.86,140.86,0,0,0,2.43,19.52l-.13-1.78A20.33,20.33,0,0,0,429.34,289.22Zm34.15-38.57-1.28,31.57L433.61,280,431.31,254Z" transform="translate(-10.2 -122.24)"/><path class="cls-3" d="M461.55,281.48l1.22-30.06-30.71,3.22,2.19,24.68Zm-10.1-7a1,1,0,1,1,1-1A1,1,0,0,1,451.45,274.53Zm0-5.14a1.21,1.21,0,1,1,1.21-1.21A1.21,1.21,0,0,1,451.45,269.39Zm0-11.53a2.9,2.9,0,1,1-2.89,2.89A2.89,2.89,0,0,1,451.45,257.86ZM439,264.49l.94,9.42a2,2,0,1,1-3.94.39l-.94-9.42a2,2,0,1,1,3.94-.39Zm-2.94-8.4a2,2,0,1,1-2,2A2,2,0,0,1,436,256.09Z" transform="translate(-10.2 -122.24)"/><polygon class="cls-19" points="460.86 105.63 460.86 105.62 460.86 105.62 460.86 105.63"/><path class="cls-19" d="M463.14,365a17.63,17.63,0,0,1-3.14-1.34A17.63,17.63,0,0,0,463.14,365Z" transform="translate(-10.2 -122.24)"/><path class="cls-13" d="M485.2,297.11c-.06,0-15.11,3.93-30.41,3.44a5.62,5.62,0,0,1-5,2.33l-4.32-.36a5.61,5.61,0,0,1-4.92-4.06c-5.67-1.69-10.59-4.55-13.79-9.13a61.31,61.31,0,0,0-15.22-5.46,59.1,59.1,0,0,1,7.62,28.27c1.81.65,3.17,1.24,3.33,1.28.53.13,18.71,8.53,26,5.51a53.34,53.34,0,0,0-2.15,12.63c10.2-5.06,21.91-6.62,33.24-5.32a.49.49,0,0,1,0,.12c-.2-3.29-.25-6.29.12-7.43a42.3,42.3,0,0,0,5.14-15.36c.09-.67.17-1.37.22-2.07A39.49,39.49,0,0,0,485.2,297.11Z" transform="translate(-10.2 -122.24)"/><path class="cls-19" d="M409.33,283.5c.64.09,1.29.2,1.93.32C410.62,283.7,410,283.59,409.33,283.5Z" transform="translate(-10.2 -122.24)"/><path class="cls-19" d="M398.6,284.16,399,284Z" transform="translate(-10.2 -122.24)"/><path class="cls-19" d="M407.28,283.28c.64.05,1.28.11,1.92.2C408.56,283.39,407.92,283.33,407.28,283.28Z" transform="translate(-10.2 -122.24)"/><path class="cls-19" d="M407,283.26a22.69,22.69,0,0,0-7.25.56c.53,0,2.09.46,1.27,7.38-1,8.2-16.23,4-16.5,3.93-2.47,3.4-3.37,7.23-3.69,13.69l.41.27c11.92,3.82,28.54,18.64,28.54,18.64s-2.42-10.64-1.38-15.36c.53-2.35,3.87-2.14,7.16-1.31h0C415.15,301.21,412.48,291.44,407,283.26Z" transform="translate(-10.2 -122.24)"/><path class="cls-19" d="M446.27,335.44c0-.63,0-1.25,0-1.85C446.26,334.19,446.26,334.81,446.27,335.44Z" transform="translate(-10.2 -122.24)"/><path class="cls-19" d="M446.27,335.54a43.7,43.7,0,0,0,2.22,13.26,28.46,28.46,0,0,0,7.32,11.85s5.79-5.9,10.7-5.43,8.47,2.12,9.06,5.43a4.71,4.71,0,0,1-.35,2.37c5.47-4.43,9.45-14.11,5.47-25,0,0,0-.18-.06-.5-.13-1.16-.49-4.27-.78-7.66v0C468.39,328.43,456.4,330,446.27,335.54Z" transform="translate(-10.2 -122.24)"/><path class="cls-19" d="M459.94,363.66a20.56,20.56,0,0,1-3.11-2.11A20.56,20.56,0,0,0,459.94,363.66Z" transform="translate(-10.2 -122.24)"/><path class="cls-19" d="M470.42,365.44l.14,0,.21-.05.24-.07C470.81,365.35,470.62,365.4,470.42,365.44Z" transform="translate(-10.2 -122.24)"/><path class="cls-20" d="M446.38,291.33l4.32.36a5.61,5.61,0,0,1,4.69,3.39,114.94,114.94,0,0,0,29.28-3.3l-16.78-2.26-10.21,2.94-8.43-3.07L434.54,289l-5.2.22a48.33,48.33,0,0,0,12.16,4.24A5.6,5.6,0,0,1,446.38,291.33Z" transform="translate(-10.2 -122.24)"/><path class="cls-13" d="M493.49,232.19l-6.89,5.34-4.92,7.29a27.85,27.85,0,0,0-2.74,4.63c1.73,3.8,4.38,6.93,7.93,8.38l-.07.24h0l.78-.08.24,0a22.65,22.65,0,0,1,6.78.32,16.21,16.21,0,0,1,12.29,11.14c17.72,6.31,26.58-6.95,26.58-6.95s-.39-7-7.48-16.28c-2.32-3-6.6-5.58-11.32-7.63-1-.46-2.09-.89-3.16-1.29A118.48,118.48,0,0,0,493.49,232.19Z" transform="translate(-10.2 -122.24)"/><path class="cls-14" d="M401,291.2c.82-6.92-.74-7.41-1.27-7.38h-.07l-.66.2-.43.13c-.43.15-.86.32-1.27.5l-.07,0c-.34.16-.68.33-1,.52l-.14.07c-.37.22-.73.45-1.09.7l-1.88,1.36c-.23.16-.43.32-.64.48-.37.26-.73.53-1.07.79l-.72.56-.83.65-.7.58-.7.58-.65.58-.59.54-.61.59c-.17.17-.34.34-.5.52s-.37.4-.54.6-.29.34-.43.51-.33.4-.49.61l-.15.2h0C384.8,295.21,400.05,299.4,401,291.2Z" transform="translate(-10.2 -122.24)"/><path class="cls-15" d="M471.25,365.22c.26-.08.53-.17.78-.27l.74-.33.22-.12.53-.29.23-.14a6.65,6.65,0,0,0,.56-.36l.17-.11.73-.55v0a4.71,4.71,0,0,0,.35-2.37c-.59-3.31-4.13-5-9.06-5.43s-10.68,5.41-10.7,5.43h0c.33.31.66.6,1,.88l0,0a20.56,20.56,0,0,0,3.11,2.11l.06,0a17.63,17.63,0,0,0,3.14,1.34l.11,0c.31.1.62.18.92.25l.13,0a14.37,14.37,0,0,0,2,.33h.16c.27,0,.53,0,.78.05h.24c.26,0,.51,0,.76,0h.17l.89-.08.16,0c.24,0,.47-.07.7-.12l.26-.06c.2,0,.39-.09.59-.15Z" transform="translate(-10.2 -122.24)"/><path class="cls-15" d="M484.67,291.78a114.94,114.94,0,0,1-29.28,3.3,5.61,5.61,0,0,1-.6,5.47c15.3.49,30.35-3.43,30.41-3.44h0C485.58,295.63,484.67,291.78,484.67,291.78Z" transform="translate(-10.2 -122.24)"/><path class="cls-15" d="M440.52,298.46a5.58,5.58,0,0,1,1-5,48.33,48.33,0,0,1-12.16-4.24,20.33,20.33,0,0,1-2.74-1.67l.13,1.78C429.93,293.91,434.85,296.77,440.52,298.46Z" transform="translate(-10.2 -122.24)"/><path class="cls-15" d="M455.39,295.08a5.61,5.61,0,0,0-4.69-3.39l-4.32-.36a5.6,5.6,0,0,0-4.88,2.13,5.58,5.58,0,0,0-1,5,5.61,5.61,0,0,0,4.92,4.06l4.32.36a5.62,5.62,0,0,0,5.63-7.8Z" transform="translate(-10.2 -122.24)"/><path class="cls-21" d="M462.21,282.22l1.28-31.57L431.31,254l2.3,25.93Zm.56-30.8-1.22,30.06-27.3-2.16-2.19-24.68Z" transform="translate(-10.2 -122.24)"/><path class="cls-15" d="M435,264.88l.94,9.42a2,2,0,1,0,3.94-.39l-.94-9.42a2,2,0,1,0-3.94.39Z" transform="translate(-10.2 -122.24)"/><path class="cls-14" d="M451.45,263.65a2.9,2.9,0,1,0-2.89-2.9A2.9,2.9,0,0,0,451.45,263.65Z" transform="translate(-10.2 -122.24)"/><path class="cls-14" d="M451.45,267a1.21,1.21,0,1,0,1.21,1.2A1.2,1.2,0,0,0,451.45,267Z" transform="translate(-10.2 -122.24)"/><path class="cls-14" d="M451.45,272.49a1,1,0,1,0,1,1A1,1,0,0,0,451.45,272.49Z" transform="translate(-10.2 -122.24)"/><path class="cls-14" d="M436,260.05a2,2,0,1,0-2-2A2,2,0,0,0,436,260.05Z" transform="translate(-10.2 -122.24)"/><path class="cls-15" d="M411.5,283.86l-.24,0c-.64-.12-1.29-.23-1.93-.32l-.13,0c-.64-.09-1.28-.15-1.92-.2l-.28,0h0c5.47,8.18,8.14,17.95,8.54,27.79h0l.86.23.14,0,.8.23.05,0,.81.26.15.05.75.25h0a59.1,59.1,0,0,0-7.62-28.27Z" transform="translate(-10.2 -122.24)"/><path class="cls-15" d="M446.34,331.56h0v0c0,.6-.05,1.2-.06,1.82v.18c0,.6,0,1.22,0,1.85v.1h0c10.13-5.57,22.12-7.11,33.58-5.7v0c-.1-1.14-.19-2.31-.26-3.45a.49.49,0,0,0,0-.12C468.25,324.94,456.54,326.5,446.34,331.56Z" transform="translate(-10.2 -122.24)"/><path class="cls-15" d="M374.7,327.27a32.54,32.54,0,0,1-2.28-3A32.54,32.54,0,0,0,374.7,327.27Z" transform="translate(-10.2 -122.24)"/><path class="cls-15" d="M369.55,315.12a9.41,9.41,0,0,0,.07,2.48c2.95-20.17,40.17,13,40.17,13a9.59,9.59,0,0,1,2.44,4.18,5.13,5.13,0,0,1-.27.81c1.77-4.14-2.17-7.88-2.17-7.88s-16.62-14.82-28.54-18.64C375.22,307.16,370.39,308.05,369.55,315.12Z" transform="translate(-10.2 -122.24)"/><path class="cls-16" d="M409.79,330.62s-37.22-33.19-40.17-13v0c0,.21.08.43.12.64a1.16,1.16,0,0,1,0,.18c0,.2.1.4.16.6l.06.24.19.58a2.77,2.77,0,0,0,.1.26c.07.19.14.38.22.58l.12.27c.08.19.17.38.26.57l.13.27.3.58c.05.09.1.17.14.26l.35.6c0,.07.09.14.13.22l.4.64.09.12a32.54,32.54,0,0,0,2.28,3l.12.14.53.61.2.23.52.57.25.27.52.53.28.3.51.51.32.3.51.5.34.31.52.48.35.31.52.47.36.31.54.45.37.31.9.74.52.41.43.34.51.39.43.32.51.38.43.31.53.38.41.29.54.37.41.28.54.36c.13.09.26.18.4.26a6.65,6.65,0,0,0,.56.36l.37.24.58.36.34.21.63.38.28.16.9.51c9.84,5.52,18.51-1.18,20.28-5.31a5.13,5.13,0,0,0,.27-.81A9.59,9.59,0,0,0,409.79,330.62Z" transform="translate(-10.2 -122.24)"/><path class="cls-14" d="M478,229.58l-4.58-1.13c-4.29,11.75.16,29.41,12.44,34.05a1.88,1.88,0,0,0,.49.13l.22-3.83.2-.73.07-.24c-3.55-1.45-6.2-4.58-7.93-8.38C476.09,243.16,475.75,235,478,229.58Z" transform="translate(-10.2 -122.24)"/><path class="cls-13" d="M450.3,204.31c11.16,4.2,11.68,25.54,11.68,25.54-19.77,15.32-32.37,13-36,11.83,13.73,7,44.7-13.59,45-13.82h0a9.47,9.47,0,0,0,1.76-4.81s-.44-1.91-1.21-4.7h0l0-.11c-1.48-5.37-4.15-13.89-7.23-18.52-4.73-7.09-16.94-12-29-8.86S416.69,204.44,415.11,209s1.58,5.71,1.58,5.71S439.14,200.11,450.3,204.31Z" transform="translate(-10.2 -122.24)"/><path class="cls-20" d="M424.86,241.62c-2.14,1.78.59,3.79.59,3.79,6.7,4.23,17.13,1.77,32.4-6.5,6.45-3.5,10.12-6.87,12.21-9.6-5.94,3.76-23.93,14.44-36.87,14.44A15.15,15.15,0,0,1,424.86,241.62Z" transform="translate(-10.2 -122.24)"/><path class="cls-22" d="M424,240.39a10,10,0,0,0,2,1.29c3.59,1.17,16.19,3.49,36-11.83,0,0-.52-21.34-11.68-25.54s-33.61,10.37-33.61,10.37-2.8,14,5.66,24a20.91,20.91,0,0,0,1.66,1.75Zm26.66-22.16c4.57,0,4.57,7.09,0,7.09S446.12,218.23,450.69,218.23Zm-2.76,8.8a1.18,1.18,0,0,1,0,2.36A1.18,1.18,0,0,1,447.93,227Zm-24.39,1.51c-1.87-3.8-2.79-7.32-2-11.54.29-1.5,2.57-.86,2.28.62-.71,3.58.14,6.53,1.71,9.73C426.25,228.71,424.22,229.91,423.54,228.54Z" transform="translate(-10.2 -122.24)"/><path class="cls-19" d="M425.58,227.35c-1.57-3.2-2.42-6.15-1.71-9.73.29-1.48-2-2.12-2.28-.62-.84,4.22.08,7.74,2,11.54C424.22,229.91,426.25,228.71,425.58,227.35Z" transform="translate(-10.2 -122.24)"/><path class="cls-19" d="M447.93,229.39a1.18,1.18,0,0,0,0-2.36A1.18,1.18,0,0,0,447.93,229.39Z" transform="translate(-10.2 -122.24)"/><path class="cls-19" d="M450.69,225.32c4.57,0,4.57-7.09,0-7.09S446.12,225.32,450.69,225.32Z" transform="translate(-10.2 -122.24)"/><path class="cls-14" d="M426,241.68a10,10,0,0,1-2-1.29l0,0-.29.38.29.21a10.25,10.25,0,0,0,.85.62,15.15,15.15,0,0,0,8.33,2.13c12.94,0,30.93-10.68,36.87-14.44,1.08-.69,1.76-1.15,1.94-1.27l-.93-.18h0C470.72,228.09,439.75,248.7,426,241.68Z" transform="translate(-10.2 -122.24)"/><path class="cls-23" d="M293.57,245.11,272,261.18l-6.31,4.7-10,7.43a3.66,3.66,0,1,1-4.36-5.84l3-2.22,13.29-9.92,14.55-10.85a3.66,3.66,0,1,0-4.36-5.84l-14.55,10.85L250,259.41l-82.92,61.51c-8.14,6.07-10.26,17-4.71,24.44s16.63,8.53,24.77,2.46l96.22-71.42c3-2.24.39-5.8-2.64-3.54l-10.45,7.79a3.66,3.66,0,1,1-4.35-5.84l4.14-3.09,6.3-4.7L297.93,251a3.66,3.66,0,1,0-4.36-5.84Zm-62.68,55.35-4.39,3.28a1,1,0,1,1-1.25-1.68l4.39-3.27a1,1,0,1,1,1.25,1.67Zm3.06-5.85-11,8.22-3.22,2.4-2.12,1.58a1.87,1.87,0,1,0,2.23,3l5.34-4c1.55-1.15,2.89.67,1.35,1.81L188,336.38a13.67,13.67,0,1,1-10.84-13.32l32.25-24.13,6.8-5.06,7.44-5.56a1.87,1.87,0,1,1,2.23,3l-7.44,5.55-6.8,5.07-1.52,1.14a1.87,1.87,0,1,0,2.23,3l5.09-3.8,3.23-2.4,11-8.22a1.87,1.87,0,1,1,2.23,3Zm2.87-9-5,3.75a1.2,1.2,0,1,1-1.43-1.92l5-3.75a1.21,1.21,0,0,1,1.68.25A1.2,1.2,0,0,1,236.82,285.57Zm6,4.41-3.43,2.56a.82.82,0,0,1-1.14-.17.81.81,0,0,1,.17-1.14l3.42-2.55a.8.8,0,0,1,1.14.16A.81.81,0,0,1,242.81,290Z" transform="translate(-10.2 -122.24)"/><path class="cls-23" d="M300.76,229.52l-9.83,7.34a2.34,2.34,0,1,0,2.79,3.75l9.84-7.33a2.34,2.34,0,0,0-2.8-3.76Z" transform="translate(-10.2 -122.24)"/><path class="cls-23" d="M289.51,259.12l-8.6,6.41a2,2,0,1,0,2.45,3.28l8.6-6.41a2,2,0,0,0-2.45-3.28Z" transform="translate(-10.2 -122.24)"/><path class="cls-23" d="M313.35,239.35l-6.7,5a1.59,1.59,0,1,0,1.9,2.55l6.7-5a1.59,1.59,0,1,0-1.9-2.56Z" transform="translate(-10.2 -122.24)"/><path class="cls-24" d="M231.72,291.62l-11,8.22-3.23,2.4-5.09,3.8a1.87,1.87,0,1,1-2.23-3l1.52-1.14,6.8-5.07,7.44-5.55a1.87,1.87,0,1,0-2.23-3l-7.44,5.56-6.8,5.06L177.2,323.06A13.61,13.61,0,0,1,188,336.38l38.47-28.76c1.54-1.14.2-3-1.35-1.81l-5.34,4a1.87,1.87,0,1,1-2.23-3l2.12-1.58,3.22-2.4,11-8.22a1.87,1.87,0,1,0-2.23-3Z" transform="translate(-10.2 -122.24)"/><path class="cls-24" d="M235.39,283.65l-5,3.75a1.2,1.2,0,1,0,1.43,1.92l5-3.75a1.2,1.2,0,0,0,.25-1.67A1.21,1.21,0,0,0,235.39,283.65Z" transform="translate(-10.2 -122.24)"/><path class="cls-24" d="M229.64,298.79l-4.39,3.27a1,1,0,1,0,1.25,1.68l4.39-3.28a1,1,0,1,0-1.25-1.67Z" transform="translate(-10.2 -122.24)"/><path class="cls-24" d="M241.83,288.68l-3.42,2.55a.81.81,0,0,0-.17,1.14.82.82,0,0,0,1.14.17l3.43-2.56a.81.81,0,0,0,.16-1.14A.8.8,0,0,0,241.83,288.68Z" transform="translate(-10.2 -122.24)"/><g class="cls-25"><path class="cls-24" d="M177.2,323.06a13.61,13.61,0,1,0,8.14,5.19A13.62,13.62,0,0,0,177.2,323.06Zm2.35,22.74A10.61,10.61,0,1,1,181.72,331,10.6,10.6,0,0,1,179.55,345.8Z" transform="translate(-10.2 -122.24)"/></g><path class="cls-24" d="M166.87,328.79A10.61,10.61,0,1,0,181.72,331,10.61,10.61,0,0,0,166.87,328.79Z" transform="translate(-10.2 -122.24)"/><path class="cls-23" d="M637.62,125.89l-26.43,19.6c-4.75,3.55-6,9.94-2.75,14.28s9.71,5,14.47,1.43l31.69-23.53,2.07-1.53,5.51-4.09,2-1.5,11.21-8.31H671a2.34,2.34,0,0,1-2,0H642.55l-2.81,2.08Zm10.81,7.66-2.56,1.92a.62.62,0,0,1-.86-.13.61.61,0,0,1,.13-.85l2.56-1.92a.62.62,0,0,1,.86.13A.61.61,0,0,1,648.43,133.55Zm4.39-5.39,2-1.49a.48.48,0,1,1,.57.76l-2,1.49a.48.48,0,0,1-.67-.09A.49.49,0,0,1,652.82,128.16Zm-4.69-2.23,2.93-2.19a.7.7,0,1,1,.84,1.12L649,127a.69.69,0,1,1-.83-1.11Zm-3.9.53a1.09,1.09,0,1,1,1.3,1.74l-4.35,3.24-4,3-.89.66a1.09,1.09,0,1,0,1.3,1.75l3-2.22,1.89-1.4,6.43-4.8a1.09,1.09,0,1,1,1.3,1.74l-6.43,4.8-1.89,1.4-1.23.93a1.14,1.14,0,0,0-.31,1.58A1.15,1.15,0,0,0,642,139l3.12-2.33c.9-.67,1.68.39.79,1.06l-22.47,16.79a8,8,0,1,1-6.33-7.77l18.84-14.09,4-3Z" transform="translate(-10.2 -122.24)"/><path class="cls-24" d="M617.08,146.75a7.93,7.93,0,0,1,6.33,7.77l22.47-16.79c.89-.67.11-1.73-.79-1.06L642,139a1.15,1.15,0,0,1-1.61-.16,1.14,1.14,0,0,1,.31-1.58l1.23-.93,1.89-1.4,6.43-4.8a1.09,1.09,0,1,0-1.3-1.74l-6.43,4.8-1.89,1.4-3,2.22a1.09,1.09,0,1,1-1.3-1.75l.89-.66,4-3,4.35-3.24a1.09,1.09,0,1,0-1.3-1.74l-4.35,3.24-4,3Z" transform="translate(-10.2 -122.24)"/><path class="cls-24" d="M649,127l2.94-2.18a.7.7,0,1,0-.84-1.12l-2.93,2.19A.69.69,0,1,0,649,127Z" transform="translate(-10.2 -122.24)"/><path class="cls-24" d="M647.7,132.57l-2.56,1.92a.61.61,0,0,0-.13.85.62.62,0,0,0,.86.13l2.56-1.92a.61.61,0,0,0,.13-.85A.62.62,0,0,0,647.7,132.57Z" transform="translate(-10.2 -122.24)"/><path class="cls-24" d="M653.39,128.92l2-1.49a.48.48,0,1,0-.57-.76l-2,1.49a.49.49,0,0,0-.1.67A.48.48,0,0,0,653.39,128.92Z" transform="translate(-10.2 -122.24)"/><g class="cls-25"><path class="cls-24" d="M617.08,146.75a7.93,7.93,0,1,0,4.76,3A7.94,7.94,0,0,0,617.08,146.75ZM618.46,160a6.2,6.2,0,1,1,1.26-8.67A6.19,6.19,0,0,1,618.46,160Z" transform="translate(-10.2 -122.24)"/></g><path class="cls-24" d="M611.05,150.09a6.2,6.2,0,1,0,8.67,1.26A6.2,6.2,0,0,0,611.05,150.09Z" transform="translate(-10.2 -122.24)"/><polygon class="cls-26" points="729.88 729.47 729.88 676.32 657.2 729.47 729.88 729.47"/><path class="cls-26" d="M730.28,731.14a428.7,428.7,0,0,0-98.87-138.85l-2-1.84A425,425,0,0,0,442,490.42l-2.09-.5a425.75,425.75,0,0,0-140.65-9.44c-2.89.29-5.79.61-8.68,1A426.78,426.78,0,0,0,30.6,613.84l87.92-64.22a30.31,30.31,0,0,1,42.35,6.57h0a30.29,30.29,0,0,1-6.57,42.34l-92,67.26a31.79,31.79,0,0,0-10.8,13.93,29.88,29.88,0,0,1,6.54,6.55h0a30.3,30.3,0,0,1,3.22,30.22,31.91,31.91,0,0,0,38.69.79L318.1,557.76a30.3,30.3,0,0,1,35.77,48.91L246.6,685.13a30.29,30.29,0,0,1,4.48,51.62L185.6,784.64a33.5,33.5,0,0,0,39-.41L267.27,753A30.3,30.3,0,0,1,303,801.9l-63.82,46.68a32.93,32.93,0,0,0-3.69,3.13H353.79l170.86-125a32.83,32.83,0,0,1,44.23,5.39h0a30.3,30.3,0,0,1-6.56,42.34l-92,67.26a31.77,31.77,0,0,0-8.89,10H564.76l161.34-118A29.36,29.36,0,0,1,730.28,731.14Z" transform="translate(-10.2 -122.24)"/><path class="cls-27" d="M470.34,841.74l92-67.26a30.3,30.3,0,0,0,6.56-42.34h0a30.3,30.3,0,0,0-41.43-7.2,30.3,30.3,0,0,1,33,50.72L456.29,851.71h5.16A31.77,31.77,0,0,1,470.34,841.74Z" transform="translate(-10.2 -122.24)"/><path class="cls-27" d="M726.1,733.71l-161.34,118H667.4l72.68-53.16v-43.4q-4.5-12.09-9.8-24A29.36,29.36,0,0,0,726.1,733.71Z" transform="translate(-10.2 -122.24)"/><path class="cls-27" d="M246.6,685.13l107.27-78.46a30.3,30.3,0,0,0-35.77-48.91L100,717.28a31.91,31.91,0,0,1-38.69-.79,30.23,30.23,0,0,1-9.78,12.12L10.61,758.52v79l204.7-149.71A30.27,30.27,0,0,1,246.6,685.13Z" transform="translate(-10.2 -122.24)"/><path class="cls-27" d="M51.54,679.72a31.79,31.79,0,0,1,10.8-13.93l92-67.26a30.29,30.29,0,0,0,6.57-42.34h0a30.31,30.31,0,0,0-42.35-6.57L30.6,613.84q-10.46,11.24-20,23.1v46.5l5.13-3.74A30.29,30.29,0,0,1,51.54,679.72Z" transform="translate(-10.2 -122.24)"/><path class="cls-27" d="M567,733.31a30.39,30.39,0,0,0-42.35-6.57l-170.86,125h77.3a30.33,30.33,0,0,1,21.08,0h4.12l104.14-76.06A30.3,30.3,0,0,0,567,733.31Z" transform="translate(-10.2 -122.24)"/><path class="cls-27" d="M303,801.9A30.3,30.3,0,0,0,267.27,753l-42.71,31.24a33.5,33.5,0,0,1-39,.41L93.9,851.71H235.53a32.93,32.93,0,0,1,3.69-3.13Z" transform="translate(-10.2 -122.24)"/><path class="cls-11" d="M431.09,851.71h2.05a30.35,30.35,0,0,1,13.21,0h5.82A30.33,30.33,0,0,0,431.09,851.71Z" transform="translate(-10.2 -122.24)"/><path class="cls-11" d="M254.06,735.41a30.73,30.73,0,0,0-36.27-49.61L10.2,837.63V852H94.67l93-68Z" transform="translate(-10.2 -122.24)"/><path class="cls-11" d="M61.3,716.49a30.3,30.3,0,0,0-3.22-30.22h0a29.88,29.88,0,0,0-6.54-6.55,30.29,30.29,0,0,0-35.8,0l-5.13,3.74v75.08l40.91-29.91A30.23,30.23,0,0,0,61.3,716.49Z" transform="translate(-10.2 -122.24)"/><path class="cls-11" d="M433.14,851.71h13.21A30.35,30.35,0,0,0,433.14,851.71Z" transform="translate(-10.2 -122.24)"/><path class="cls-23" d="M642.31,451.54a1.8,1.8,0,0,1,.48-2.5l1.94-1.45,3-2.2,10.11-7.54a1.72,1.72,0,1,0-2-2.74l-10.1,7.54-3,2.2L638,448.34a1.72,1.72,0,1,1-2-2.74l1.39-1,6.24-4.65,6.83-5.1a1.72,1.72,0,1,0-2-2.74l-6.83,5.09-6.24,4.66L596.4,470.68c-3.82,2.85-4.81,8-2.21,11.48s7.81,4,11.63,1.15L647,452.71l3.93-2.92c1.42-1.05.19-2.72-1.24-1.66l-1.51,1.13-3.39,2.53A1.81,1.81,0,0,1,642.31,451.54Zm-16,9.54-2.07,1.54a.49.49,0,1,1-.58-.78l2.06-1.54a.49.49,0,0,1,.59.78Zm1.43-2.74-5.17,3.85-1.51,1.13-1,.74a.88.88,0,1,0,1,1.4l2.51-1.86c.72-.55,1.35.31.63.85l-18.06,13.49A6.41,6.41,0,1,1,596,472.82a6.34,6.34,0,0,1,5.15-1.13l15.14-11.32,3.19-2.38,3.5-2.61a.92.92,0,0,1,1.29.13.91.91,0,0,1-.25,1.27l-3.49,2.61-3.19,2.38-.71.53a.88.88,0,1,0,1,1.4l2.39-1.78,1.52-1.13,5.16-3.85a.88.88,0,1,1,1,1.4Zm1.35-4.24-2.36,1.75a.56.56,0,1,1-.67-.89l2.36-1.77a.57.57,0,0,1,.67.91Zm2.81,2.07-1.61,1.2a.39.39,0,1,1-.46-.62l1.61-1.2a.39.39,0,1,1,.46.62Z" transform="translate(-10.2 -122.24)"/><path class="cls-23" d="M655.82,433l4.62-3.44a1.1,1.1,0,0,0-1.31-1.76l-4.62,3.44a1.1,1.1,0,0,0,1.31,1.76Z" transform="translate(-10.2 -122.24)"/><path class="cls-23" d="M653.84,441.68l-4,3a1,1,0,0,0-.19,1.34.93.93,0,0,0,.57.36,1,1,0,0,0,.77-.16l4-3a1,1,0,0,0,.37-.87,1,1,0,0,0-.17-.47A1,1,0,0,0,653.84,441.68Z" transform="translate(-10.2 -122.24)"/><path class="cls-23" d="M662.78,436l3.15-2.35a.75.75,0,0,0-.9-1.2l-3.14,2.35a.75.75,0,0,0,.89,1.2Z" transform="translate(-10.2 -122.24)"/><path class="cls-24" d="M626.72,456.94l-5.16,3.85L620,461.92l-2.39,1.78a.88.88,0,1,1-1-1.4l.71-.53,3.19-2.38,3.49-2.61a.91.91,0,0,0,.25-1.27.92.92,0,0,0-1.29-.13l-3.5,2.61-3.19,2.38-15.14,11.32a6.38,6.38,0,0,1,5.09,6.25l18.06-13.49c.72-.54.09-1.4-.63-.85l-2.51,1.86a.88.88,0,1,1-1-1.4l1-.74,1.51-1.13,5.17-3.85a.88.88,0,1,0-1-1.4Z" transform="translate(-10.2 -122.24)"/><path class="cls-24" d="M628.45,453.19,626.09,455a.56.56,0,1,0,.67.89l2.36-1.75a.57.57,0,0,0-.67-.91Z" transform="translate(-10.2 -122.24)"/><path class="cls-24" d="M625.75,460.3l-2.06,1.54a.49.49,0,1,0,.58.78l2.07-1.54a.49.49,0,0,0-.59-.78Z" transform="translate(-10.2 -122.24)"/><path class="cls-24" d="M631.47,455.55l-1.61,1.2a.39.39,0,1,0,.46.62l1.61-1.2a.39.39,0,1,0-.46-.62Z" transform="translate(-10.2 -122.24)"/><g class="cls-25"><path class="cls-24" d="M601.13,471.69a6.34,6.34,0,0,0-5.15,1.13,6.43,6.43,0,1,0,5.15-1.13Zm1.11,10.67a5,5,0,1,1,1-7A5,5,0,0,1,602.24,482.36Z" transform="translate(-10.2 -122.24)"/></g><path class="cls-24" d="M596.29,474.38a5,5,0,1,0,7,1A5,5,0,0,0,596.29,474.38Z" transform="translate(-10.2 -122.24)"/></g></g></svg>